:FULLY-SPECIFIED
:FORCE-ALL-JOINTS-BE-3DOF
:DEGREES
146
root 8.68382 16.366 -16.674 6.68178 9.24545 2.24419
lfemur 7.87093 5.32659 -20.318
ltibia 31.5151 0 0
lfoot -4.94679 6.74447 0
ltoes -10.3227 0 0
rfemur -37.1278 6.17219 14.2403
rtibia 27.1818 0 0
rfoot -18.2573 -5.83016 0
rtoes -18.8304 0 0
lowerback -6.40203 -2.98602 -3.34514
upperback -1.48066 -3.72982 2.83572
thorax 2.48257 -1.91389 4.44938
lowerneck -19.036 -6.49212 -14.0768
upperneck 17.6669 -7.75639 12.9799
head 9.87288 -3.21888 5.79587
lclavicle -4.02189e-14 3.95643e-15 0
lhumerus -38.0557 -19.7725 97.465
lradius 33.7694 0 0
lwrist 7.37689 0 0
lhand -4.79955 -20.9415 0
lfingers 7.12502 0 0
lthumb 20.9798 7.8697 0
rclavicle -4.02189e-14 3.95643e-15 0
rhumerus -46.8506 7.90142 -81.9121
rradius 32.8233 0 0
rwrist -17.9094 0 0
rhand -28.5741 -24.9592 0
rfingers 7.12502 0 0
rthumb -1.94042 -54.9322 0
147
root 8.65939 16.382 -16.5214 6.74303 9.3033 2.0451
lfemur 7.05367 5.5644 -19.9104
ltibia 33.4071 0 0
lfoot -4.38728 7.18087 0
ltoes -10.5084 0 0
rfemur -36.6656 5.8246 14.8569
rtibia 27.4585 0 0
rfoot -17.8843 -5.4103 0
rtoes -18.5967 0 0
lowerback -6.27106 -2.91987 -3.15251
upperback -1.49828 -3.65884 2.87951
thorax 2.37437 -1.87476 4.3992
lowerneck -19.0242 -6.54412 -14.1108
upperneck 17.4606 -7.82817 13.0914
head 9.816 -3.24284 5.82564
lclavicle -3.95926e-14 5.35992e-15 0
lhumerus -38.5229 -19.3232 97.4559
lradius 33.2911 0 0
lwrist 7.14472 0 0
lhand -4.4578 -20.7519 0
lfingers 7.12502 0 0
lthumb 21.3083 8.02524 0
rclavicle -3.95926e-14 5.35992e-15 0
rhumerus -46.8034 8.00426 -81.8963
rradius 32.8433 0 0
rwrist -17.9274 0 0
rhand -28.5235 -25.0553 0
rfingers 7.12502 0 0
rthumb -1.89158 -55.029 0
148
root 8.63496 16.398 -16.3688 6.80349 9.35483 1.84553
lfemur 6.22185 5.79811 -19.5062
ltibia 35.2788 0 0
lfoot -3.83828 7.61549 0
ltoes -10.6931 0 0
rfemur -36.1913 5.47871 15.4745
rtibia 27.7338 0 0
rfoot -17.5142 -4.99187 0
rtoes -18.3602 0 0
lowerback -6.14091 -2.85223 -2.9598
upperback -1.51546 -3.58592 2.92306
thorax 2.267 -1.83466 4.34884
lowerneck -19.0123 -6.59523 -14.1441
upperneck 17.2556 -7.89894 13.2024
head 9.75934 -3.26634 5.85534
lclavicle -3.89449e-14 6.75036e-15 0
lhumerus -38.9877 -18.8733 97.4445
lradius 32.8137 0 0
lwrist 6.91423 0 0
lhand -4.12269 -20.5654 0
lfingers 7.12502 0 0
lthumb 21.6304 8.17828 0
rclavicle -3.89449e-14 6.75036e-15 0
rhumerus -46.7521 8.10841 -81.8817
rradius 32.8712 0 0
rwrist -17.9492 0 0
rhand -28.4754 -25.1516 0
rfingers 7.12502 0 0
rthumb -1.84512 -55.1258 0
149
root 8.61053 16.414 -16.2163 6.86302 9.40004 1.64601
lfemur 5.37765 6.02672 -19.1067
ltibia 37.1227 0 0
lfoot -3.302 8.04668 0
ltoes -10.8764 0 0
rfemur -35.7057 5.136 16.0909
rtibia 28.0052 0 0
rfoot -17.1487 -4.57594 0
rtoes -18.1219 0 0
lowerback -6.01212 -2.78324 -2.76753
upperback -1.53211 -3.51118 2.96623
thorax 2.16093 -1.79368 4.29844
lowerneck -19 -6.64534 -14.1768
upperneck 17.0525 -7.96855 13.3126
head 9.70304 -3.28937 5.88487
lclavicle -3.82767e-14 8.12226e-15 0
lhumerus -39.4492 -18.4246 97.431
lradius 32.3389 0 0
lwrist 6.68655 0 0
lhand -3.79565 -20.3829 0
lfingers 7.12502 0 0
lthumb 21.9448 8.32818 0
rclavicle -3.82767e-14 8.12226e-15 0
rhumerus -46.6967 8.21338 -81.8681
rradius 32.9075 0 0
rwrist -17.9748 0 0
rhand -28.4301 -25.248 0
rfingers 7.12502 0 0
rthumb -1.80133 -55.2227 0
150
root 8.5861 16.4299 -16.0637 6.92148 9.43897 1.4471
lfemur 4.52327 6.24924 -18.713
ltibia 38.9312 0 0
lfoot -2.78066 8.47282 0
ltoes -11.0581 0 0
rfemur -35.2098 4.79793 16.7043
rtibia 28.2699 0 0
rfoot -16.7891 -4.16362 0
rtoes -17.8824 0 0
lowerback -5.88523 -2.71305 -2.57628
upperback -1.54813 -3.43477 3.00887
thorax 2.05663 -1.75188 4.24812
lowerneck -18.9873 -6.69433 -14.2088
upperneck 16.852 -8.03684 13.4217
head 9.64727 -3.31188 5.91415
lclavicle -3.75888e-14 9.4701e-15 0
lhumerus -39.9061 -17.9784 97.4158
lradius 31.8688 0 0
lwrist 6.46283 0 0
lhand -3.47811 -20.2051 0
lfingers 7.12502 0 0
lthumb 22.25 8.4743 0
rclavicle -3.75888e-14 9.4701e-15 0
rhumerus -46.6371 8.31871 -81.8553
rradius 32.9525 0 0
rwrist -18.0045 0 0
rhand -28.3878 -25.3442 0
rfingers 7.12502 0 0
rthumb -1.76049 -55.3194 0
151
root 8.56167 16.4459 -15.9111 6.97873 9.47161 1.24933
lfemur 3.66089 6.46467 -18.3264
ltibia 40.6968 0 0
lfoot -2.27649 8.89229 0
ltoes -11.238 0 0
rfemur -34.7043 4.46597 17.3126
rtibia 28.5253 0 0
rfoot -16.4371 -3.75599 0
rtoes -17.6427 0 0
lowerback -5.76079 -2.64179 -2.38658
upperback -1.56343 -3.35682 3.05084
thorax 1.95455 -1.70937 4.19799
lowerneck -18.9739 -6.74206 -14.24
upperneck 16.6547 -8.10363 13.5293
head 9.59219 -3.33383 5.94309
lclavicle -3.68819e-14 1.07884e-14 0
lhumerus -40.3573 -17.5367 97.399
lradius 31.4051 0 0
lwrist 6.24419 0 0
lhand -3.17151 -20.0328 0
lfingers 7.12502 0 0
lthumb 22.5447 8.61599 0
rclavicle -3.68819e-14 1.07884e-14 0
rhumerus -46.5732 8.42394 -81.8431
rradius 33.0066 0 0
rwrist -18.0383 0 0
rhand -28.3489 -25.4401 0
rfingers 7.12502 0 0
rthumb -1.72288 -55.4158 0
152
root 8.53724 16.4619 -15.7586 7.03463 9.49799 1.05326
lfemur 2.79271 6.67202 -17.9482
ltibia 42.412 0 0
lfoot -1.7917 9.30346 0
ltoes -11.4159 0 0
rfemur -34.1902 4.14159 17.9138
rtibia 28.7689 0 0
rfoot -16.094 -3.35414 0
rtoes -17.4035 0 0
lowerback -5.63934 -2.56962 -2.19898
upperback -1.5779 -3.27746 3.092
thorax 1.85515 -1.66622 4.14817
lowerneck -18.9599 -6.78843 -14.2704
upperneck 16.4612 -8.16877 13.6351
head 9.53795 -3.3552 5.9716
lclavicle -3.61568e-14 1.20716e-14 0
lhumerus -40.8018 -17.1008 97.3811
lradius 30.9497 0 0
lwrist 6.03177 0 0
lhand -2.87727 -19.8668 0
lfingers 7.12502 0 0
lthumb 22.8275 8.75261 0
rclavicle -3.61568e-14 1.20716e-14 0
rhumerus -46.5048 8.52859 -81.8314
rradius 33.0701 0 0
rwrist -18.0764 0 0
rhand -28.3135 -25.5355 0
rfingers 7.12502 0 0
rthumb -1.68878 -55.5115 0
153
root 8.51281 16.4779 -15.606 7.08905 9.51812 0.859435
lfemur 1.92092 6.87029 -17.5795
ltibia 44.0692 0 0
lfoot -1.32852 9.70471 0
ltoes -11.5916 0 0
rfemur -33.6684 3.82625 18.506
rtibia 28.9979 0 0
rfoot -15.7614 -2.95916 0
rtoes -17.1658 0 0
lowerback -5.52143 -2.49667 -2.01404
upperback -1.59146 -3.19684 3.1322
thorax 1.7589 -1.6225 4.0988
lowerneck -18.9449 -6.83331 -14.2999
upperneck 16.2722 -8.23211 13.7387
head 9.48471 -3.37594 5.9996
lclavicle -3.54144e-14 1.33143e-14 0
lhumerus -41.2384 -16.6726 97.3623
lradius 30.5045 0 0
lwrist 5.8267 0 0
lhand -2.59683 -19.7078 0
lfingers 7.12502 0 0
lthumb 23.097 8.88352 0
rclavicle -3.54144e-14 1.33143e-14 0
rhumerus -46.4318 8.63219 -81.8199
rradius 33.1434 0 0
rwrist -18.1188 0 0
rhand -28.2822 -25.6302 0
rfingers 7.12502 0 0
rthumb -1.65847 -55.6065 0
154
root 8.48838 16.4938 -15.4534 7.14184 9.53202 0.66839
lfemur 1.04771 7.05849 -17.2215
ltibia 45.6609 0 0
lfoot -0.889152 10.0944 0
ltoes -11.7648 0 0
rfemur -33.1397 3.52141 19.0872
rtibia 29.2098 0 0
rfoot -15.4407 -2.57213 0
rtoes -16.9302 0 0
lowerback -5.4076 -2.42308 -1.83231
upperback -1.604 -3.11508 3.1713
thorax 1.66625 -1.57831 4.04999
lowerneck -18.9289 -6.87656 -14.3285
upperneck 16.0884 -8.29346 13.8399
head 9.43264 -3.39601 6.02699
lclavicle -3.46555e-14 1.45108e-14 0
lhumerus -41.6661 -16.2536 97.343
lradius 30.0714 0 0
lwrist 5.63011 0 0
lhand -2.33162 -19.5567 0
lfingers 7.12502 0 0
lthumb 23.352 9.00806 0
rclavicle -3.46555e-14 1.45108e-14 0
rhumerus -46.3542 8.73427 -81.8085
rradius 33.227 0 0
rwrist -18.1658 0 0
rhand -28.255 -25.724 0
rfingers 7.12502 0 0
rthumb -1.63225 -55.7005 0
155
root 8.46394 16.5098 -15.3009 7.19287 9.5397 0.480677
lfemur 0.175274 7.23561 -16.8756
ltibia 47.1795 0 0
lfoot -0.47583 10.4709 0
ltoes -11.9354 0 0
rfemur -32.605 3.22855 19.6554
rtibia 29.402 0 0
rfoot -15.1334 -2.19416 0
rtoes -16.6977 0 0
lowerback -5.29839 -2.34899 -1.65433
upperback -1.61543 -3.03232 3.20916
thorax 1.57768 -1.53372 4.00186
lowerneck -18.9117 -6.91809 -14.3561
upperneck 15.9103 -8.35268 13.9382
head 9.38189 -3.41539 6.05369
lclavicle -3.38808e-14 1.56559e-14 0
lhumerus -42.0837 -15.8455 97.3233
lradius 29.6522 0 0
lwrist 5.44314 0 0
lhand -2.08306 -19.4143 0
lfingers 7.12502 0 0
lthumb 23.5909 9.12559 0
rclavicle -3.38808e-14 1.56559e-14 0
rhumerus -46.2718 8.83436 -81.7971
rradius 33.321 0 0
rwrist -18.2174 0 0
rhand -28.2324 -25.8168 0
rfingers 7.12502 0 0
rthumb -1.61038 -55.7934 0
156
root 8.43951 16.5258 -15.1483 7.24199 9.54118 0.296842
lfemur -0.694201 7.40067 -16.543
ltibia 48.6176 0 0
lfoot -0.0907677 10.8327 0
ltoes -12.103 0 0
rfemur -32.0652 2.94913 20.2087
rtibia 29.5718 0 0
rfoot -14.8411 -1.82633 0
rtoes -16.4691 0 0
lowerback -5.19435 -2.27456 -1.48065
upperback -1.62565 -2.94871 3.24563
thorax 1.49363 -1.48881 3.95453
lowerneck -18.8932 -6.95775 -14.3828
upperneck 15.7387 -8.4096 14.0333
head 9.33262 -3.43404 6.07962
lclavicle -3.30912e-14 1.67438e-14 0
lhumerus -42.4901 -15.4499 97.3036
lradius 29.2488 0 0
lwrist 5.26692 0 0
lhand -1.8526 -19.2813 0
lfingers 7.12502 0 0
lthumb 23.8124 9.23548 0
rclavicle -3.30912e-14 1.67438e-14 0
rhumerus -46.1846 8.932 -81.7853
rradius 33.426 0 0
rwrist -18.2738 0 0
rhand -28.2145 -25.9083 0
rfingers 7.12502 0 0
rthumb -1.59315 -55.885 0
157
root 8.41508 16.5418 -14.9957 7.28908 9.53647 0.117428
lfemur -1.55852 7.55267 -16.2249
ltibia 49.9676 0 0
lfoot 0.263814 11.178 0
ltoes -12.2675 0 0
rfemur -31.5211 2.68462 20.745
rtibia 29.7165 0 0
rfoot -14.5651 -1.46972 0
rtoes -16.2452 0 0
lowerback -5.09602 -2.19991 -1.31183
upperback -1.63457 -2.86436 3.28057
thorax 1.41457 -1.44368 3.90813
lowerneck -18.8733 -6.99542 -14.4084
upperneck 15.5742 -8.46406 14.125
head 9.285 -3.45191 6.10468
lclavicle -3.22874e-14 1.77692e-14 0
lhumerus -42.8843 -15.0684 97.2842
lradius 28.8631 0 0
lwrist 5.10258 0 0
lhand -1.64166 -19.1586 0
lfingers 7.12502 0 0
lthumb 24.0151 9.33707 0
rclavicle -3.22874e-14 1.77692e-14 0
rhumerus -46.0924 9.02671 -81.7732
rradius 33.5423 0 0
rwrist -18.3351 0 0
rhand -28.2018 -25.9983 0
rfingers 7.12502 0 0
rthumb -1.58085 -55.975 0
158
root 8.39065 16.5578 -14.8432 7.33399 9.52558 -0.0570164
lfemur -2.4155 7.69062 -15.9224
ltibia 51.222 0 0
lfoot 0.585695 11.5052 0
ltoes -12.4287 0 0
rfemur -30.9737 2.43649 21.2623
rtibia 29.8337 0 0
rfoot -14.3071 -1.12543 0
rtoes -16.0268 0 0
lowerback -5.00396 -2.1252 -1.14841
upperback -1.64208 -2.77943 3.31384
thorax 1.34097 -1.39839 3.86278
lowerneck -18.8518 -7.03099 -14.4329
upperneck 15.4175 -8.5159 14.2128
head 9.23916 -3.46897 6.12879
lclavicle -3.14703e-14 1.87265e-14 0
lhumerus -43.265 -14.7027 97.2654
lradius 28.4969 0 0
lwrist 4.95126 0 0
lhand -1.45168 -19.0468 0
lfingers 7.12502 0 0
lthumb 24.1977 9.42972 0
rclavicle -3.14703e-14 1.87265e-14 0
rhumerus -45.9951 9.11802 -81.7603
rradius 33.6702 0 0
rwrist -18.4014 0 0
rhand -28.1945 -26.0868 0
rfingers 7.12502 0 0
rthumb -1.57375 -56.0634 0
159
root 8.36622 16.5737 -14.6906 7.37658 9.50854 -0.225947
lfemur -3.26294 7.81351 -15.637
ltibia 52.3732 0 0
lfoot 0.872656 11.8128 0
ltoes -12.5863 0 0
rfemur -30.4237 2.20619 21.7588
rtibia 29.9205 0 0
rfoot -14.0684 -0.794542 0
rtoes -15.8148 0 0
lowerback -4.91869 -2.05056 -0.990939
upperback -1.64809 -2.69405 3.34529
thorax 1.27328 -1.35303 3.81859
lowerneck -18.8285 -7.06434 -14.4562
upperneck 15.2691 -8.56495 14.2965
head 9.19529 -3.48519 6.15186
lclavicle -3.06407e-14 1.96102e-14 0
lhumerus -43.6313 -14.3544 97.2475
lradius 28.1521 0 0
lwrist 4.81409 0 0
lhand -1.28408 -18.9468 0
lfingers 7.12502 0 0
lthumb 24.3588 9.51279 0
rclavicle -3.06407e-14 1.96102e-14 0
rhumerus -45.8926 9.20547 -81.7467
rradius 33.8102 0 0
rwrist -18.4728 0 0
rhand -28.1928 -26.1734 0
rfingers 7.12502 0 0
rthumb -1.57214 -56.1498 0
